<svg height="480pt" viewBox="-96 0 480 480.70329" width="480pt" xmlns="http://www.w3.org/2000/svg" xmlns:xlink="http://www.w3.org/1999/xlink"><linearGradient id="a"><stop offset="0" stop-color="#f9a86d"/><stop offset=".503" stop-color="#f05361"/><stop offset="1" stop-color="#b72563"/></linearGradient><linearGradient id="b" gradientTransform="matrix(1.000616 0 0 -1.000616 -95.787894 472.267334)" gradientUnits="userSpaceOnUse" x1="-24.7753" x2="487.3135" xlink:href="#a" y1="455.9525" y2="455.9525"/><linearGradient id="c" gradientTransform="matrix(1.000616 0 0 -1.000616 -95.787894 472.267334)" gradientUnits="userSpaceOnUse" x1="-24.7753" x2="487.3135" xlink:href="#a" y1="423.9056" y2="423.9056"/><linearGradient id="d" gradientTransform="matrix(1.000616 0 0 -1.000616 -95.787894 472.267334)" gradientUnits="userSpaceOnUse" x1="-24.7753" x2="487.3135" xlink:href="#a" y1="391.8588" y2="391.8588"/><linearGradient id="e" gradientTransform="matrix(1.000616 0 0 -1.000616 -95.787894 472.267334)" gradientUnits="userSpaceOnUse" x1="-24.7753" x2="487.3135" xlink:href="#a" y1="207.5893" y2="207.5893"/><linearGradient id="f" gradientTransform="matrix(1.000616 0 0 -1.000616 -95.787894 472.267334)" gradientUnits="userSpaceOnUse" x1="-24.7753" x2="487.3135" xlink:href="#a" y1="175.5425" y2="175.5425"/><linearGradient id="g" gradientTransform="matrix(1.000616 0 0 -1.000616 -95.787894 472.267334)" gradientUnits="userSpaceOnUse" x1="-24.7753" x2="487.3135" xlink:href="#a" y1="59.3729" y2="59.3729"/><linearGradient id="h" gradientTransform="matrix(1.000616 0 0 -1.000616 -95.787894 472.267334)" gradientUnits="userSpaceOnUse" x1="-24.7753" x2="487.3135" xlink:href="#a" y1="231.6248" y2="231.6248"/><path d="m88.59375 16.035156c0 8.855469-7.175781 16.03125-16.03125 16.03125s-16.03125-7.175781-16.03125-16.03125c0-8.855468 7.175781-16.035156 16.03125-16.035156s16.03125 7.179688 16.03125 16.035156zm0 0" fill="url(#b)"/><path d="m88.59375 48.101562c0 8.855469-7.175781 16.03125-16.03125 16.03125s-16.03125-7.175781-16.03125-16.03125c0-8.855468 7.175781-16.035156 16.03125-16.035156s16.03125 7.179688 16.03125 16.035156zm0 0" fill="url(#c)"/><path d="m88.59375 80.167969c0 8.855469-7.175781 16.03125-16.03125 16.03125s-16.03125-7.175781-16.03125-16.03125 7.175781-16.035157 16.03125-16.035157 16.03125 7.179688 16.03125 16.035157zm0 0" fill="url(#d)"/><path d="m216.863281 16.035156c0 8.855469-7.179687 16.03125-16.035156 16.03125s-16.03125-7.175781-16.03125-16.03125c0-8.855468 7.175781-16.035156 16.03125-16.035156s16.035156 7.179688 16.035156 16.035156zm0 0" fill="url(#b)"/><path d="m216.863281 48.101562c0 8.855469-7.179687 16.03125-16.035156 16.03125s-16.03125-7.175781-16.03125-16.03125c0-8.855468 7.175781-16.035156 16.03125-16.035156s16.035156 7.179688 16.035156 16.035156zm0 0" fill="url(#c)"/><path d="m216.863281 80.167969c0 8.855469-7.179687 16.03125-16.035156 16.03125s-16.03125-7.175781-16.03125-16.03125 7.175781-16.035157 16.03125-16.035157 16.035156 7.179688 16.035156 16.035157zm0 0" fill="url(#d)"/><path d="m184.796875 256.535156h16.03125v16.03125h-16.03125zm0 0" fill="url(#e)"/><path d="m184.796875 288.601562h16.03125v16.03125h-16.03125zm0 0" fill="url(#f)"/><path d="m196.703125 385.941406c-3.796875 2.28125-5.027344 7.203125-2.746094 11l24.046875 40.082032c2.28125 3.796874 7.203125 5.027343 11 2.75 3.796875-2.277344 5.027344-7.203126 2.75-11l-24.050781-40.085938c-2.277344-3.792969-7.203125-5.023438-10.996094-2.746094-.003906 0-.003906 0-.003906 0zm0 0" fill="url(#g)"/><path d="m4.84375 456.105469 48.101562 24.046875c2.796876 1.398437 6.148438 1.042968 8.589844-.910156l75.160156-60.125 75.160157 60.125c2.441406 1.953124 5.796875 2.308593 8.59375.910156l48.097656-24.046875c3.886719-1.945313 5.515625-6.625 3.679687-10.5625l-54.25-116.246094 69.761719-108.515625c2.367188-3.679688 1.34375-8.574219-2.296875-11.003906l-24.046875-16.03125c-2.773437-1.84375-6.394531-1.785156-9.105469.144531l-50.296874 35.925781-33.230469-18.128906v-104.152344l13.6875-13.683594c1.503906-1.503906 2.347656-3.542968 2.347656-5.667968v-80.167969c-.003906-4.425781-3.589844-8.015625-8.019531-8.015625-1.453125 0-2.878906.394531-4.125 1.144531l-35.957032 21.574219-35.957031-21.574219c-3.796875-2.277343-8.722656-1.0468748-11 2.75-.746093 1.246094-1.144531 2.667969-1.144531 4.121094v80.167969c.003906 2.128906.847656 4.164062 2.351562 5.667968l13.683594 13.683594v104.15625l-84.007812 45.820313c-3.886719 2.125-5.316406 6.996093-3.195313 10.882812.074219.136719.152344.269531.238281.402344l37.777344 60.441406-54.277344 116.304688c-1.835937 3.9375-.203124 8.617187 3.679688 10.5625zm99.785156-433.929688 27.941406 16.765625c2.539063 1.527344 5.710938 1.527344 8.25 0l27.941407-16.765625v62.6875l-11.335938 11.335938h-41.460937l-11.335938-11.335938zm48.101563 90.058594v208.433594h-32.066407v-208.433594zm16.03125 224.464844v16.035156h-64.132813v-16.035156zm-96.949219-4.625c1.144531-2.460938.96875-5.335938-.46875-7.636719l-35.578125-56.921875 68.863281-37.558594v90.710938h-8.015625c-4.429687 0-8.019531 3.589843-8.019531 8.015625v32.066406c0 4.429688 3.589844 8.019531 8.019531 8.019531h80.164063c4.429687 0 8.015625-3.589843 8.015625-8.019531v-32.066406c0-4.425782-3.585938-8.015625-8.015625-8.015625h-8.015625v-90.710938l29.960937 16.339844c2.695313 1.476563 5.996094 1.277344 8.496094-.511719l49.882812-35.628906 12.886719 8.589844-67.886719 105.605468c-1.488281 2.3125-1.683593 5.226563-.519531 7.722657l52.816407 113.179687-36.535157 18.261719-76.160156-60.925781c-2.925781-2.339844-7.085937-2.339844-10.011719 0l-76.164062 60.925781-36.53125-18.261719zm0 0" fill="url(#h)"/></svg>