<svg height="481pt" viewBox="0 0 481 481.07415" width="481pt" xmlns="http://www.w3.org/2000/svg" xmlns:xlink="http://www.w3.org/1999/xlink"><linearGradient id="a"><stop offset="0" stop-color="#f9a86d"/><stop offset=".503" stop-color="#f05361"/><stop offset="1" stop-color="#b72563"/></linearGradient><linearGradient id="b" gradientTransform="matrix(.999848 0 0 -.999848 -.147925 487.926277)" gradientUnits="userSpaceOnUse" x1="-14.4487" x2="490.0902" xlink:href="#a" y1="79.4011" y2="79.4011"/><linearGradient id="c" gradientTransform="matrix(.999848 0 0 -.999848 -.147925 487.926277)" gradientUnits="userSpaceOnUse" x1="-14.4487" x2="490.0902" xlink:href="#a" y1="111.448" y2="111.448"/><linearGradient id="d" gradientTransform="matrix(.999848 0 0 -.999848 -.147925 487.926277)" gradientUnits="userSpaceOnUse" x1="-14.4487" x2="490.0902" xlink:href="#a" y1="159.3339" y2="159.3339"/><linearGradient id="e" gradientTransform="matrix(.999848 0 0 -.999848 -.147925 487.926277)" gradientUnits="userSpaceOnUse" x1="-14.4487" x2="490.0902" xlink:href="#a" y1="407.8821" y2="407.8821"/><linearGradient id="f" gradientTransform="matrix(.999848 0 0 -.999848 -.147925 487.926277)" gradientUnits="userSpaceOnUse" x1="-14.4487" x2="490.0902" xlink:href="#a" y1="407.8788" y2="407.8788"/><path d="m240.351562 432.570312c-30.953124-.039062-56.035156-25.121093-56.074218-56.074218 0-4.425782-3.585938-8.011719-8.007813-8.011719-4.425781 0-8.011719 3.585937-8.011719 8.011719.042969 39.796875 32.296876 72.050781 72.09375 72.09375 4.425782 0 8.011719-3.585938 8.011719-8.011719s-3.585937-8.007813-8.011719-8.007813zm0 0" fill="url(#b)"/><path d="m248.363281 376.496094c0 17.695312 14.34375 32.042968 32.042969 32.042968 17.695312 0 32.039062-14.347656 32.039062-32.042968 0-17.695313-14.34375-32.042969-32.039062-32.042969-17.691406.019531-32.023438 14.355469-32.042969 32.042969zm48.0625 0c0 8.847656-7.171875 16.019531-16.019531 16.019531s-16.019531-7.171875-16.019531-16.019531 7.171875-16.019532 16.019531-16.019532c8.84375.007813 16.007812 7.175782 16.019531 16.019532zm0 0" fill="url(#c)"/><path d="m472.65625 272.359375h-104.136719v-88.117187c0-4.421876-3.582031-8.007813-8.007812-8.007813 0 0 0 0-.003907 0h-96.125c-4.421874-.003906-8.007812 3.582031-8.011718 8.003906v.003907 24.03125h-32.042969v-24.03125c.003906-4.421876-3.582031-8.007813-8.003906-8.007813-.003907 0-.003907 0-.003907 0h-96.128906c-4.421875-.003906-8.007812 3.582031-8.007812 8.003906v.003907 88.117187h-104.136719c-4.421875 0-8.0078125 3.582031-8.0117188 8.007813v.003906 144.1875c0 4.421875 3.5859378 8.011718 8.0078128 8.011718h.003906 8.011719v40.050782c0 4.425781 3.582031 8.011718 8.007812 8.011718h.003906 32.042969c4.421875 0 8.007813-3.582031 8.007813-8.007812 0 0 0 0 0-.003906v-40.050782h16.023437v40.050782c-.003906 4.425781 3.582031 8.011718 8.003907 8.011718h.003906 32.042968c4.421876 0 8.011719-3.582031 8.011719-8.007812 0 0 0 0 0-.003906v-40.050782h8.011719c4.421875 0 8.007812-3.585937 8.007812-8.007812v-.003906-8.074219c21.84375 53.144531 82.632813 78.519531 135.777344 56.679687 47.722656-19.613281 73.863282-71.242187 61.417969-121.320312.972656.410156 2.015625.617188 3.070313.621094h40.050781v64.085937h-24.03125c-3.445313-.003906-6.507813 2.203125-7.59375 5.472657l-16.023438 48.066406c-1.402343 4.191406.859375 8.726562 5.054688 10.128906.820312.273438 1.675781.414062 2.542969.414062h32.042968c3.445313 0 6.507813-2.207031 7.59375-5.476562l14.195313-42.585938h20.503906l14.195313 42.585938c1.085937 3.269531 4.148437 5.476562 7.59375 5.476562h32.042968c4.421875 0 8.007813-3.582031 8.007813-8.003906 0-.863281-.136719-1.722656-.410157-2.542968l-16.023437-48.0625c-1.085937-3.269532-4.148437-5.476563-7.59375-5.476563h-24.03125v-64.082031h40.050781c4.425782 0 8.011719-3.585938 8.011719-8.007813v-.003906-64.085937c0-4.421876-3.582031-8.007813-8.007813-8.007813-.003906 0-.003906 0-.007812 0zm-101.898438 192.25h-15.152343l10.679687-32.039063h15.152344zm80.105469-32.039063 10.675781 32.039063h-15.152343l-10.675781-32.039063zm-178.46875-240.316406h16.019531v16.019532h-16.019531zm-80.105469 0h16.019532v16.019532h-16.019532zm0 32.042969h96.125v16.019531h-96.125zm64.085938 32.039063v17.386718c-10.605469-1.820312-21.441406-1.820312-32.042969 0v-17.386718zm-208.273438 208.273437h-16.023437v-32.039063h16.023437zm64.082032 0h-16.019532v-32.039063h16.019532zm16.023437-48.0625h-112.148437v-128.167969h16.019531v16.019532h16.023437v-16.019532h16.019532v16.019532h16.019531v-16.019532h16.019531v16.019532h16.023438v-16.019532h16.019531v128.167969zm0-144.1875v-80.105469h16.019531v16.019532h16.019532v-16.019532h16.019531v16.019532h8.011719c-4.421875 0-8.007813 3.585937-8.011719 8.007812v.003906 32.042969c0 4.421875 3.585937 8.007813 8.007813 8.011719h.003906 24.03125v16.019531zm16.019531 16.019531h40.882813c-18.257813 11.453125-32.535156 28.257813-40.882813 48.128906zm96.125 176.230469c-48.664062 0-88.113281-39.449219-88.113281-88.113281 0-48.664063 39.449219-88.117188 88.113281-88.117188 48.664063 0 88.117188 39.453125 88.117188 88.117188-.054688 48.640625-39.472656 88.058594-88.117188 88.113281zm96.125-128.101563c-8.347656-19.871093-22.625-36.675781-40.882812-48.128906h40.882812zm-64.082031-64.148437v-16.019531h24.03125c4.421875 0 8.007813-3.585938 8.011719-8.007813v-.003906-32.042969c0-4.421875-3.585938-8.007812-8.007812-8.011718h-.003907 8.011719v-16.019532h16.019531v16.019532h16.019531v-16.019532h16.019532v80.105469zm144.1875 144.1875h-16.019531v-64.082031h16.019531zm48.066407-80.105469h-112.148438v-48.0625h16.019531v16.019532h16.019531v-16.019532h16.023438v16.019532h16.019531v-16.019532h16.019531v16.019532h16.019532v-16.019532h16.023437v48.0625zm0 0" fill="url(#d)"/><path d="m8.046875 56.074219h80.105469v51.132812c-4.820313 5.425781-7.636719 12.335938-7.976563 19.585938l-43.167969 18.015625c-4.082031 1.703125-6.015624 6.390625-4.3125 10.476562 1.246094 2.984375 4.160157 4.925782 7.394532 4.925782h144.1875c4.425781 0 8.011718-3.585938 8.011718-8.007813 0-3.234375-1.945312-6.148437-4.925781-7.394531l-43.167969-18.015625c-.347656-7.359375-3.246093-14.375-8.195312-19.832031.097656-.351563.167969-.707032.214844-1.070313v-52.320313c0-.15625-.082032-.289062-.089844-.445312 11.730469-13.132812 10.597656-33.289062-2.535156-45.019531-12.058594-10.773438-30.269532-10.8125-42.375-.09375h-83.167969c-4.421875 0-8.0078125 3.582031-8.0117188 8.007812v.003907 32.042968c0 4.421875 3.5859378 8.007813 8.0078128 8.007813zm104.136719-40.050781c8.847656 0 16.019531 7.171874 16.019531 16.019531 0 8.847656-7.171875 16.019531-16.019531 16.019531s-16.019532-7.171875-16.019532-16.019531c.007813-8.84375 7.175782-16.011719 16.019532-16.019531zm8.011718 46.925781v34.320312c-5.234374-1.523437-10.789062-1.523437-16.019531 0v-34.320312c5.230469 1.515625 10.785157 1.515625 16.019531 0zm-28.578124 76.425781c3.410156-1.417969 5.40625-4.980469 4.835937-8.628906-.164063-.847656-.261719-1.710938-.289063-2.578125 0-8.847657 7.171876-16.019531 16.019532-16.019531s16.019531 7.171874 16.019531 16.019531c-.027344.867187-.125 1.730469-.289063 2.578125-.570312 3.648437 1.425782 7.210937 4.835938 8.628906l11.53125 4.816406h-64.195312zm-75.558594-115.339844h65.222656c-.722656 2.609375-1.105469 5.300782-1.140625 8.007813.035156 2.710937.417969 5.402343 1.140625 8.011719h-65.222656zm0 0" fill="url(#e)"/><path d="m472.65625 8.011719h-82.773438c-.109374 0-.203124.058593-.316406.0625-13.15625-11.707031-33.3125-10.535157-45.019531 2.621093-10.8125 12.144532-10.753906 30.484376.140625 42.558594-.089844.324219-.15625.652344-.199219.984375v52.96875c-4.820312 5.425781-7.636719 12.335938-7.980469 19.585938l-43.164062 18.015625c-4.085938 1.699218-6.015625 6.390625-4.3125 10.472656 1.242188 2.984375 4.160156 4.929688 7.394531 4.929688h144.1875c4.425781 0 8.011719-3.585938 8.011719-8.007813 0-3.234375-1.945312-6.152344-4.929688-7.394531l-43.164062-18.015625c-.34375-7.25-3.160156-14.160157-7.980469-19.585938v-51.132812h80.105469c4.421875 0 8.011719-3.582031 8.011719-8.007813 0 0 0 0 0-.003906v-32.039062c0-4.425782-3.585938-8.011719-8.007813-8.011719 0 0 0 0-.003906 0zm-104.136719 8.011719c8.847657 0 16.019531 7.171874 16.019531 16.019531 0 8.847656-7.171874 16.019531-16.019531 16.019531-8.847656 0-16.019531-7.171875-16.019531-16.019531.007812-8.84375 7.175781-16.011719 16.019531-16.019531zm8.011719 46.925781v34.320312c-5.234375-1.523437-10.789062-1.523437-16.019531 0v-34.320312c5.230469 1.515625 10.785156 1.515625 16.019531 0zm24.085938 81.242187h-64.191407l11.53125-4.816406c3.421875-1.425781 5.417969-5.015625 4.824219-8.675781-.164062-.832031-.257812-1.679688-.28125-2.53125 0-8.847657 7.171875-16.019531 16.019531-16.019531 8.847657 0 16.019531 7.171874 16.019531 16.019531-.027343.867187-.125 1.730469-.289062 2.578125-.570312 3.648437 1.425781 7.210937 4.835938 8.628906zm64.03125-104.136718h-65.222657c.71875-2.609376 1.101563-5.300782 1.136719-8.011719-.035156-2.707031-.417969-5.398438-1.136719-8.011719h65.222657zm0 0" fill="url(#f)"/></svg>