<svg height="480pt" viewBox="1 -40 480.707 480" width="480pt" xmlns="http://www.w3.org/2000/svg" xmlns:xlink="http://www.w3.org/1999/xlink"><linearGradient id="a"><stop offset="0" stop-color="#f9a86d"/><stop offset=".503" stop-color="#f05361"/><stop offset="1" stop-color="#b72563"/></linearGradient><linearGradient id="b" gradientTransform="matrix(1.000618 0 0 -1.000618 0 432.563708)" gradientUnits="userSpaceOnUse" x1="-17.5294" x2="503.5428" xlink:href="#a" y1="391.858" y2="391.858"/><linearGradient id="c" gradientTransform="matrix(1.000618 0 0 -1.000618 0 432.563708)" gradientUnits="userSpaceOnUse" x1="-17.5294" x2="503.5428" xlink:href="#a" y1="359.8111" y2="359.8111"/><linearGradient id="d" gradientTransform="matrix(1.000618 0 0 -1.000618 0 432.563708)" gradientUnits="userSpaceOnUse" x1="-17.5294" x2="503.5428" xlink:href="#a" y1="343.7877" y2="343.7877"/><linearGradient id="e" gradientTransform="matrix(1.000618 0 0 -1.000618 0 432.563708)" gradientUnits="userSpaceOnUse" x1="-17.5294" x2="503.5428" xlink:href="#a" y1="311.7408" y2="311.7408"/><linearGradient id="f" gradientTransform="matrix(1.000618 0 0 -1.000618 0 432.563708)" gradientUnits="userSpaceOnUse" x1="-17.5294" x2="503.5428" xlink:href="#a" y1="151.5065" y2="151.5065"/><linearGradient id="g" gradientTransform="matrix(1.000618 0 0 -1.000618 0 432.563708)" gradientUnits="userSpaceOnUse" x1="-17.5294" x2="503.5428" xlink:href="#a" y1="231.6242" y2="231.6242"/><path d="m80.167969 32.445312h16.03125v16.035157h-16.03125zm0 0" fill="url(#b)"/><path d="m48.101562 64.515625h16.03125v16.03125h-16.03125zm0 0" fill="url(#c)"/><path d="m64.132812 80.546875h16.035157v16.03125h-16.035157zm0 0" fill="url(#d)"/><path d="m80.167969 112.613281h16.03125v16.03125h-16.03125zm0 0" fill="url(#e)"/><path d="m32.066406 112.613281h16.035156v16.03125h-16.035156zm0 0" fill="url(#e)"/><path d="m256.535156 272.945312h16.03125v16.035157h-16.03125zm0 0" fill="url(#f)"/><path d="m448.933594 56.496094h-38.4375c-11.363282-18.46875-35.320313-24.050782-49.746094-24.050782h-202.980469c-8.226562-9.140624-18.277343-16.457031-29.503906-21.476562v-2.574219c.003906-4.425781-3.585937-8.015625-8.011719-8.015625-.191406 0-.382812.007813-.574218.019532l-97.34375 6.953124c-12.566407.941407-22.2929692 11.390626-22.335938 23.992188v98.40625c.0429688 12.601562 9.769531 23.050781 22.335938 23.992188l97.34375 6.953124c.191406.011719.382812.019532.570312.019532 4.425781 0 8.015625-3.585938 8.015625-8.011719v-.003906-2.574219c11.226563-5.019531 21.277344-12.335938 29.503906-21.480469h34.632813v8.019531c0 1.242188.289062 2.472657.84375 3.585938l10.234375 20.464844h-3.0625c-4.429688 0-8.015625 3.585937-8.015625 8.015625v32.066406c0 4.429687 3.585937 8.015625 8.015625 8.015625h8.015625v184.382812c0 4.429688 3.589844 8.019532 8.019531 8.019532h80.164063c4.429687 0 8.019531-3.589844 8.019531-8.019532v-184.382812h8.015625c4.425781 0 8.015625-3.585938 8.015625-8.015625v-32.066406c0-4.429688-3.589844-8.015625-8.015625-8.015625h-3.0625l10.234375-20.464844c.554687-1.113281.84375-2.34375.84375-3.585938v-8.019531h40.085937c14.425782 0 38.378906-5.578125 49.746094-24.046875h22.402344v208.433594c0 4.425781 3.589844 8.015625 8.019531 8.015625h32.066406c4.425781 0 8.015625-3.589844 8.015625-8.015625v-224.46875c-.023437-17.699219-14.367187-32.046875-32.070312-32.066406zm-336.699219 87.59375-88.757813-6.339844c-4.1875-.3125-7.433593-3.796875-7.445312-8v-98.40625c.011719-4.203125 3.257812-7.6875 7.445312-7.996094l88.757813-6.34375zm16.03125-11.957032v-103.175781c28.492187 14.066407 40.1875 48.5625 26.125 77.050781-5.597656 11.34375-14.78125 20.527344-26.125 26.125zm160.335937 253.046876h-64.136718v-176.367188h32.070312v48.101562h16.03125v-48.101562h16.03125v176.367188zm16.03125-192.398438h-96.199218v-16.035156h96.199218zm0-58.007812-12.972656 25.941406h-70.253906l-12.972656-25.941406v-46.210938c.007812-4.421875 3.589844-8.007812 8.015625-8.015625h80.167969c4.425781.007813 8.011718 3.589844 8.015624 8.015625zm48.101563-22.160157h-32.070313v-24.050781c-.011718-13.273438-10.773437-24.035156-24.046874-24.046875h-80.167969c-13.277344.011719-24.035157 10.773437-24.050781 24.046875v24.050781h-23.640626c10.144532-20.175781 10.144532-43.957031 0-64.132812h183.976563zm16.03125-.742187v-62.683594c11.71875 1.816406 32.066406 8.296875 32.066406 31.359375 0 22.910156-20.347656 29.453125-32.066406 31.324219zm96.199219 193.140625h-16.03125v-208.429688c0-4.429687-3.589844-8.019531-8.015625-8.019531h-24.703125c.867187-5.308594.867187-10.722656 0-16.03125h32.71875c8.851562.007812 16.023437 7.183594 16.03125 16.03125zm0 0" fill="url(#g)"/></svg>