<svg height="480pt" viewBox="1 -80 480.70306 480" width="480pt" xmlns="http://www.w3.org/2000/svg" xmlns:xlink="http://www.w3.org/1999/xlink"><linearGradient id="a"><stop offset="0" stop-color="#f9a86d"/><stop offset=".503" stop-color="#f05361"/><stop offset="1" stop-color="#b72563"/></linearGradient><linearGradient id="b" gradientTransform="matrix(1.000618 0 0 -1.000618 .000064 392.500264)" gradientUnits="userSpaceOnUse" x1="-13.2777" x2="493.8874" xlink:href="#a" y1="231.6206" y2="231.6206"/><linearGradient id="c" gradientTransform="matrix(1.000618 0 0 -1.000618 .000064 392.500264)" gradientUnits="userSpaceOnUse" x1="-13.2777" x2="493.8874" xlink:href="#a" y1="311.6843" y2="311.6843"/><linearGradient id="d" gradientTransform="matrix(1.000618 0 0 -1.000618 .000064 392.500264)" gradientUnits="userSpaceOnUse" x1="-13.2777" x2="493.8874" xlink:href="#a" y1="311.7176" y2="311.7176"/><linearGradient id="e" gradientTransform="matrix(1.000618 0 0 -1.000618 .000064 392.500264)" gradientUnits="userSpaceOnUse" x1="-13.2777" x2="493.8874" xlink:href="#a" y1="311.718" y2="311.718"/><linearGradient id="f" gradientTransform="matrix(1.000618 0 0 -1.000618 .000064 392.500264)" gradientUnits="userSpaceOnUse" x1="-13.2777" x2="493.8874" xlink:href="#a" y1="311.7354" y2="311.7354"/><linearGradient id="g" gradientTransform="matrix(1.000618 0 0 -1.000618 .000064 392.500264)" gradientUnits="userSpaceOnUse" x1="-13.2777" x2="493.8874" xlink:href="#a" y1="319.7471" y2="319.7471"/><linearGradient id="h" gradientTransform="matrix(1.000618 0 0 -1.000618 .000064 392.500264)" gradientUnits="userSpaceOnUse" x1="-13.2777" x2="493.8874" xlink:href="#a" y1="271.6768" y2="271.6768"/><linearGradient id="i" gradientTransform="matrix(1.000618 0 0 -1.000618 .000064 392.500264)" gradientUnits="userSpaceOnUse" x1="-13.2777" x2="493.8874" xlink:href="#a" y1="287.7003" y2="287.7003"/><linearGradient id="j" gradientTransform="matrix(1.000618 0 0 -1.000618 .000064 392.500264)" gradientUnits="userSpaceOnUse" x1="-13.2777" x2="493.8874" xlink:href="#a" y1="247.6417" y2="247.6417"/><path d="m400.832031.40625c-25.183593.019531-48.886719 11.902344-63.980469 32.066406h-192.703124c-26.507813-35.390625-76.691407-42.59375-112.082032-16.082031-20.214844 15.136719-32.097656 38.925781-32.066406 64.183594v240.496093h481v-240.496093c-.050781-44.257813-35.914062-80.117188-80.167969-80.167969zm-320.664062 16.03125c35.417969 0 64.132812 28.714844 64.132812 64.136719 0 35.417969-28.714843 64.132812-64.132812 64.132812-35.421875 0-64.136719-28.714843-64.136719-64.132812.042969-35.40625 28.734375-64.09375 64.136719-64.136719zm-40.085938 288.601562h-24.050781v-112.234374h24.050781zm48.101563 0h-32.066406v-112.234374h16.03125v80.167968h16.035156zm32.066406 0h-16.03125v-32.066406h16.03125zm-32.066406-48.101562v-64.132812h16.03125v64.132812zm80.167968 48.101562h-32.066406v-32.066406h16.03125v-80.167968h16.03125v112.234374zm-48.101562-48.101562v-64.132812h16.035156v64.132812zm96.199219 48.101562h-32.066407v-112.234374h16.035157v80.167968h16.03125zm32.066406 0h-16.03125v-32.066406h16.03125zm-32.066406-48.101562v-64.132812h16.035156v64.132812zm80.167969 48.101562h-32.066407v-32.066406h16.03125v-80.167968h16.035157zm-48.101563-48.101562v-64.132812h16.035156v64.132812zm96.203125 48.101562h-32.070312v-112.234374h16.035156v80.167968h16.03125v32.066406zm32.066406 0h-16.035156v-32.066406h16.035156zm-32.066406-48.101562v-64.132812h16.03125v64.132812zm80.164062 48.101562h-32.066406v-32.066406h16.03125v-80.167968h16.035156zm-48.097656-48.101562v-64.132812h16.03125v64.132812zm88.183594 48.101562h-24.050781v-112.234374h24.050781zm0-128.265624h-448.9375v-48.304688c26.40625 35.472656 76.570312 42.824219 112.042969 16.417969 29.910156-22.265625 40.492187-62.230469 25.519531-96.378907h173.8125c-17.765625 40.492188.664062 87.722657 41.160156 105.488282 34.15625 14.980468 74.132813 4.398437 96.398438-25.527344v48.304688zm-.195312-92.40625c.003906.039062-.015626.074218-.011719.117187l.003906.050781c-2.855469 34.644532-33.253906 60.414063-67.898437 57.558594-34.644532-2.855469-60.414063-33.253906-57.554688-67.898438 2.855469-34.644531 33.253906-60.410156 67.894531-57.554687 33.109375 2.726563 58.394531 30.71875 57.757813 63.933594.003906 1.277343-.117188 2.53125-.191406 3.792969zm0 0" fill="url(#b)"/><path d="m45.75 110.289062 48.101562-48.097656c3.101563-3.160156 3.054688-8.234375-.101562-11.335937-3.117188-3.0625-8.117188-3.0625-11.234375 0l-48.097656 48.097656c-3.160157 3.101563-3.207031 8.179687-.105469 11.335937 3.105469 3.160157 8.179688 3.203126 11.335938.101563.035156-.03125.070312-.066406.101562-.101563zm0 0" fill="url(#c)"/><path d="m66.480469 110.289062c3.128906 3.132813 8.203125 3.132813 11.335937.003907v-.003907l48.101563-48.097656c3.109375-3.152344 3.078125-8.226562-.070313-11.335937-3.121094-3.085938-8.144531-3.085938-11.265625 0l-48.101562 48.097656c-3.121094 3.128906-3.113281 8.203125 0 11.335937zm0 0" fill="url(#d)"/><path d="m422.535156 50.855469c-3.128906-3.132813-8.203125-3.132813-11.335937-.003907v.003907l-48.101563 48.097656c-3.148437 3.113281-3.179687 8.1875-.070312 11.335937 3.109375 3.152344 8.1875 3.183594 11.335937.070313.023438-.023437.046875-.046875.070313-.070313l48.101562-48.097656c3.128906-3.128906 3.128906-8.203125 0-11.335937zm0 0" fill="url(#e)"/><path d="m395.167969 98.953125c-3.160157 3.101563-3.207031 8.179687-.101563 11.335937 3.101563 3.160157 8.175782 3.203126 11.335938.101563.03125-.03125.066406-.066406.101562-.101563l48.097656-48.097656c3.15625-3.101562 3.203126-8.179687.101563-11.335937-3.101563-3.160157-8.175781-3.207031-11.335937-.101563-.035157.03125-.070313.066406-.101563.101563zm0 0" fill="url(#f)"/><path d="m176.367188 64.539062h128.265624v16.03125h-128.265624zm0 0" fill="url(#g)"/><path d="m184.382812 96.605469c-13.28125 0-24.046874 10.769531-24.046874 24.050781s10.765624 24.050781 24.046874 24.050781c13.285157 0 24.050782-10.769531 24.050782-24.050781-.015625-13.277344-10.773438-24.035156-24.050782-24.050781zm0 32.066406c-4.425781 0-8.015624-3.589844-8.015624-8.015625 0-4.429688 3.589843-8.019531 8.015624-8.019531 4.429688 0 8.019532 3.589843 8.019532 8.019531-.007813 4.425781-3.59375 8.011719-8.019532 8.015625zm0 0" fill="url(#h)"/><g fill="url(#i)"><path d="m224.464844 96.605469h16.035156v16.03125h-16.035156zm0 0"/><path d="m256.535156 96.605469h16.03125v16.03125h-16.03125zm0 0"/><path d="m288.601562 96.605469h16.03125v16.03125h-16.03125zm0 0"/></g><path d="m224.464844 128.671875h16.035156v32.066406h-16.035156zm0 0" fill="url(#j)"/><path d="m256.535156 128.671875h16.03125v32.066406h-16.03125zm0 0" fill="url(#j)"/><path d="m288.601562 128.671875h16.03125v32.066406h-16.03125zm0 0" fill="url(#j)"/></svg>